<svg width="47" height="45" viewBox="0 0 47 45" fill="none" xmlns="http://www.w3.org/2000/svg">
<path id="Vector" d="M23.5 0C20.4139 0 17.3581 0.596429 14.5069 1.75523C11.6558 2.91404 9.06517 4.61252 6.88299 6.75371C2.47589 11.078 0 16.9431 0 23.0586C0 33.2505 6.7445 41.8975 16.074 44.9643C17.249 45.1488 17.625 44.4339 17.625 43.8114V39.9144C11.1155 41.298 9.729 36.8246 9.729 36.8246C8.648 34.1498 7.1205 33.435 7.1205 33.435C4.982 32.0053 7.285 32.0515 7.285 32.0515C9.635 32.2129 10.8805 34.4265 10.8805 34.4265C12.925 37.9314 16.3795 36.8938 17.719 36.3404C17.9305 34.8416 18.5415 33.827 19.1995 33.2505C13.9825 32.674 8.507 30.691 8.507 21.9057C8.507 19.3462 9.4 17.294 10.9275 15.6568C10.6925 15.0803 9.87 12.6822 11.1625 9.56932C11.1625 9.56932 13.1365 8.94674 17.625 11.9213C19.4815 11.414 21.5025 11.1604 23.5 11.1604C25.4975 11.1604 27.5185 11.414 29.375 11.9213C33.8635 8.94674 35.8375 9.56932 35.8375 9.56932C37.13 12.6822 36.3075 15.0803 36.0725 15.6568C37.6 17.294 38.493 19.3462 38.493 21.9057C38.493 30.7141 32.994 32.651 27.7535 33.2275C28.5995 33.9423 29.375 35.3488 29.375 37.4933V43.8114C29.375 44.4339 29.751 45.1718 30.9495 44.9643C40.279 41.8744 47 33.2505 47 23.0586C47 20.0305 46.3922 17.0321 45.2112 14.2345C44.0302 11.4369 42.2992 8.8949 40.117 6.75371C37.9348 4.61252 35.3442 2.91404 32.4931 1.75523C29.6419 0.596429 26.5861 0 23.5 0Z" fill="#B8001F"/>
</svg>
