<svg width="61" height="61" viewBox="0 0 61 61" fill="none" xmlns="http://www.w3.org/2000/svg">
<g id="ri:instagram-fill">
<path id="Vector" d="M33.1129 5.08325C35.9722 5.09088 37.4235 5.10613 38.6766 5.14171L39.1696 5.1595C39.739 5.17984 40.3007 5.20525 40.9793 5.23575C43.6836 5.36284 45.5289 5.78984 47.1479 6.41763C48.8254 7.06321 50.2386 7.93754 51.6518 9.34817C52.9447 10.6183 53.9448 12.1554 54.5823 13.852C55.2101 15.471 55.6371 17.3163 55.7642 20.0232C55.7947 20.6993 55.8201 21.261 55.8404 21.8328L55.8557 22.3259C55.8938 23.5764 55.9091 25.0277 55.9142 27.8871L55.9167 29.7832V33.1128C55.9229 34.9667 55.9034 36.8206 55.8582 38.6739L55.843 39.167C55.8226 39.7389 55.7972 40.3006 55.7667 40.9767C55.6396 43.6835 55.2076 45.5263 54.5823 47.1478C53.9448 48.8445 52.9447 50.3815 51.6518 51.6517C50.3816 52.9446 48.8446 53.9447 47.1479 54.5822C45.5289 55.21 43.6836 55.637 40.9793 55.7641L39.1696 55.8403L38.6766 55.8556C37.4235 55.8912 35.9722 55.909 33.1129 55.914L31.2168 55.9166H27.8897C26.035 55.9231 24.1802 55.9036 22.326 55.8581L21.8329 55.8429C21.2296 55.82 20.6263 55.7938 20.0233 55.7641C17.3189 55.637 15.4737 55.21 13.8521 54.5822C12.1564 53.9444 10.6202 52.9443 9.35081 51.6517C8.05697 50.3818 7.05596 48.8447 6.41773 47.1478C5.78994 45.5288 5.36294 43.6835 5.23585 40.9767L5.1596 39.167L5.1469 38.6739C5.10004 36.8206 5.07886 34.9667 5.08335 33.1128V27.8871C5.07632 26.0332 5.09496 24.1793 5.13927 22.3259L5.15706 21.8328C5.1774 21.261 5.20281 20.6993 5.23331 20.0232C5.3604 17.3163 5.7874 15.4736 6.41519 13.852C7.05491 12.1547 8.05767 10.6176 9.35335 9.34817C10.622 8.05586 12.1573 7.05577 13.8521 6.41763C15.4737 5.78984 17.3164 5.36284 20.0233 5.23575C20.6994 5.20525 21.2636 5.17984 21.8329 5.1595L22.326 5.14425C24.1794 5.09909 26.0333 5.07961 27.8872 5.08579L33.1129 5.08325ZM30.5 17.7916C27.1296 17.7916 23.8971 19.1305 21.5139 21.5138C19.1306 23.897 17.7917 27.1295 17.7917 30.4999C17.7917 33.8704 19.1306 37.1028 21.5139 39.4861C23.8971 41.8693 27.1296 43.2083 30.5 43.2083C33.8705 43.2083 37.1029 41.8693 39.4862 39.4861C41.8694 37.1028 43.2084 33.8704 43.2084 30.4999C43.2084 27.1295 41.8694 23.897 39.4862 21.5138C37.1029 19.1305 33.8705 17.7916 30.5 17.7916ZM30.5 22.8749C31.5014 22.8748 32.4929 23.0718 33.4181 23.4549C34.3433 23.8379 35.1839 24.3994 35.8921 25.1073C36.6002 25.8153 37.162 26.6557 37.5454 27.5808C37.9287 28.5058 38.1261 29.4973 38.1263 30.4986C38.1265 31.5 37.9294 32.4915 37.5464 33.4167C37.1633 34.3419 36.6018 35.1825 35.8939 35.8907C35.186 36.5989 34.3455 37.1607 33.4204 37.544C32.4954 37.9274 31.5039 38.1248 30.5026 38.1249C28.4803 38.1249 26.5408 37.3216 25.1109 35.8916C23.6809 34.4616 22.8776 32.5222 22.8776 30.4999C22.8776 28.4776 23.6809 26.5382 25.1109 25.1082C26.5408 23.6783 28.4803 22.8749 30.5026 22.8749M43.8463 13.9791C43.0037 13.9791 42.1956 14.3138 41.5998 14.9096C41.004 15.5055 40.6692 16.3136 40.6692 17.1562C40.6692 17.9988 41.004 18.8069 41.5998 19.4027C42.1956 19.9985 43.0037 20.3333 43.8463 20.3333C44.6889 20.3333 45.497 19.9985 46.0929 19.4027C46.6887 18.8069 47.0234 17.9988 47.0234 17.1562C47.0234 16.3136 46.6887 15.5055 46.0929 14.9096C45.497 14.3138 44.6889 13.9791 43.8463 13.9791Z" fill="#B8001F"/>
</g>
</svg>
