<svg width="34" height="44" viewBox="0 0 34 44" fill="none" xmlns="http://www.w3.org/2000/svg">
<path id="Vector" d="M1.875 0H31.875C32.3723 0 32.8492 0.206324 33.2008 0.573582C33.5525 0.940841 33.75 1.43895 33.75 1.95833V9.79167C33.75 10.311 33.5525 10.8092 33.2008 11.1764C32.8492 11.5437 32.3723 11.75 31.875 11.75H1.875C1.37772 11.75 0.900805 11.5437 0.549175 11.1764C0.197544 10.8092 0 10.311 0 9.79167V1.95833C0 1.43895 0.197544 0.940841 0.549175 0.573582C0.900805 0.206324 1.37772 0 1.875 0ZM1.875 15.6667H31.875C32.3723 15.6667 32.8492 15.873 33.2008 16.2402C33.5525 16.6075 33.75 17.1056 33.75 17.625V25.4583C33.75 25.9777 33.5525 26.4758 33.2008 26.8431C32.8492 27.2103 32.3723 27.4167 31.875 27.4167H1.875C1.37772 27.4167 0.900805 27.2103 0.549175 26.8431C0.197544 26.4758 0 25.9777 0 25.4583V17.625C0 17.1056 0.197544 16.6075 0.549175 16.2402C0.900805 15.873 1.37772 15.6667 1.875 15.6667ZM1.875 31.3333H31.875C32.3723 31.3333 32.8492 31.5397 33.2008 31.9069C33.5525 32.2742 33.75 32.7723 33.75 33.2917V41.125C33.75 41.6444 33.5525 42.1425 33.2008 42.5098C32.8492 42.877 32.3723 43.0833 31.875 43.0833H1.875C1.37772 43.0833 0.900805 42.877 0.549175 42.5098C0.197544 42.1425 0 41.6444 0 41.125V33.2917C0 32.7723 0.197544 32.2742 0.549175 31.9069C0.900805 31.5397 1.37772 31.3333 1.875 31.3333ZM11.25 7.83333H13.125V3.91667H11.25V7.83333ZM11.25 23.5H13.125V19.5833H11.25V23.5ZM11.25 39.1667H13.125V35.25H11.25V39.1667ZM3.75 3.91667V7.83333H7.5V3.91667H3.75ZM3.75 19.5833V23.5H7.5V19.5833H3.75ZM3.75 35.25V39.1667H7.5V35.25H3.75Z" fill="#B8001F"/>
</svg>
